<svg width="196px" height="63px" viewBox="0 0 196 63" version="1.1" xmlns="http://www.w3.org/2000/svg" xmlns:xlink="http://www.w3.org/1999/xlink">
    <g id="Page-1" stroke="none" stroke-width="1" fill="none" fill-rule="evenodd">
        <g id="logo-snow" transform="translate(-1.000000, -1.000000)">
            <g id="Page-1">
                <g>
                    <g id="Christmas-theme">
                        <g id="logo-snow" transform="translate(0.763478, 0.451700)">
                            <g id="logo" transform="translate(0.641345, 0.251105)">
                                <g id="Group">
                                    <g id="Shape">
                                        <path d="M30.3036512,61.8994286 C14.5279302,61.8994286 1.69448837,49.0274286 1.69448837,33.2068571 L1.69448837,30.7931429 C1.69448837,14.9714286 14.5290698,2.10171429 30.3036512,2.10171429 L165.697488,2.10171429 C181.473209,2.10171429 194.305512,14.9725714 194.305512,30.7931429 L194.305512,33.2068571 C194.305512,49.0285714 181.47207,61.8994286 165.697488,61.8994286 L30.3036512,61.8994286 L30.3036512,61.8994286 L30.3036512,61.8994286 Z" fill="#3F444F"></path>
                                        <path d="M165.697488,3.24685714 C180.864698,3.24685714 193.163698,15.5805714 193.163698,30.792 L193.163698,33.2068571 C193.163698,48.4205714 180.864698,60.7542857 165.697488,60.7542857 L30.3036512,60.7542857 C15.1341628,60.7542857 2.83630233,48.4205714 2.83630233,33.2068571 L2.83630233,30.792 C2.83630233,15.5805714 15.1341628,3.24685714 30.3036512,3.24685714 L165.697488,3.24685714 L165.697488,3.24685714 L165.697488,3.24685714 Z M165.697488,0.954285714 L30.3036512,0.954285714 C13.8977674,0.954285714 0.551534884,14.3394286 0.551534884,30.7908571 L0.551534884,33.2057143 C0.551534884,49.6582857 13.8977674,63.0445714 30.3036512,63.0445714 L165.697488,63.0445714 C182.102233,63.0445714 195.448465,49.6582857 195.448465,33.2057143 L195.448465,30.7908571 C195.449605,14.3394286 182.103372,0.954285714 165.697488,0.954285714 L165.697488,0.954285714 L165.697488,0.954285714 L165.697488,0.954285714 Z" fill="#FFFFFF"></path>
                                    </g>
                                    <path d="M99.8585814,57.512 L30.2409767,57.512 C16.7807907,57.512 5.86974419,46.5691429 5.86974419,33.0685714 L5.86974419,30.928 C5.86974419,17.4285714 16.7807907,6.48571429 30.2409767,6.48571429 L96.0115116,6.48571429" id="Shape" fill="#FFFFFF"></path>
                                </g>
                                <g id="Group" transform="translate(20.000000, 8.000000)" font-size="35" font-family="AmericanTypewriter, American Typewriter" fill="#5C6C7D" font-weight="normal">
                                    <text id="trim">
                                        <tspan x="0.595177" y="32.297195">trim</tspan>
                                    </text>
                                </g>
                                <g id="Group" transform="translate(109.000000, 19.000000)" fill="#FFFFFF">
                                    <path d="M7.22667273,4.93423077 L7.22667273,6.06384615 C8.53592727,4.23038462 10.3239818,3.30961538 12.5919818,3.30961538 C14.931,3.30961538 16.7866364,4.12192308 18.1680545,5.74538462 C19.5460364,7.37 20.2344545,9.5715385 20.2344545,12.35 C20.2344545,15.3407692 19.5048,17.7223077 18.0443455,19.5003846 C16.5850364,21.2796154 14.6274545,22.1680769 12.1738909,22.1680769 C10.1407091,22.1680769 8.48896364,21.4492308 7.22896364,20.0138462 L7.22896364,22.9434615 C7.22896364,23.84 7.25416364,24.4180769 7.30112727,24.6753846 C7.44201818,25.4057692 7.77992727,25.7692308 8.32058182,25.7692308 C8.48209091,25.7692308 8.72607273,25.7357692 9.05596364,25.6630769 C9.38241818,25.5915385 9.6264,25.5569231 9.79363636,25.5569231 C10.5404727,25.5569231 10.9150364,25.9434615 10.9150364,26.7211538 C10.9150364,27.5 10.4236364,27.8876923 9.44770909,27.8876923 C9.0972,27.8876923 8.57258182,27.8415385 7.87614545,27.7469231 C7.36069091,27.6753846 6.59209091,27.6419231 5.5692,27.6419231 C5.01136364,27.6419231 4.54287273,27.6661538 4.16830909,27.7123077 C3.2382,27.8323077 2.61965455,27.8876923 2.32298182,27.8876923 C1.92092727,27.8876923 1.58301818,27.7665385 1.30467273,27.5242308 C1.02976364,27.2807692 0.887727273,26.9946154 0.887727273,26.6726923 C0.887727273,25.9319231 1.27947273,25.5592308 2.06525455,25.5592308 C2.20270909,25.5592308 2.42378182,25.5903846 2.72732727,25.6503846 C3.11907273,25.7323077 3.41116364,25.7703846 3.59443636,25.7703846 C4.03658182,25.7703846 4.30690909,25.5407692 4.40885455,25.0815385 C4.51652727,24.6234615 4.57838182,23.345 4.60243636,21.2507692 L4.60243636,7.61923077 C4.57838182,6.53692308 4.28056364,5.99576923 3.70096364,5.99576923 C3.53716364,5.99576923 3.29203636,6.035 2.95298182,6.11807692 C2.61621818,6.20230769 2.3562,6.23923077 2.17407273,6.23923077 C1.31383636,6.23923077 0.887727273,5.85038462 0.887727273,5.075 C0.887727273,4.32269231 1.3986,3.94538462 2.43065455,3.94538462 C2.68723636,3.94538462 2.96901818,3.95576923 3.26798182,3.97884615 C3.85330909,4.02846154 4.28858182,4.05153846 4.56807273,4.05153846 C4.78227273,4.05153846 5.08009091,4.03192308 5.48214545,3.99846154 C5.87732727,3.96384615 6.17056364,3.94538462 6.35727273,3.94538462 C6.93687273,3.94653846 7.22667273,4.27538462 7.22667273,4.93423077 M7.75472727,9.2426923 C7.54396364,10.1611538 7.42941818,11.2803846 7.40192727,12.5980769 C7.40192727,12.6938462 7.39161818,12.8680769 7.36641818,13.1242308 L7.36641818,13.6226923 C7.36641818,15.1976923 7.49470909,16.3469231 7.75472727,17.0657692 C8.01474545,17.78 8.52561818,18.425 9.28734545,18.9903846 C10.0467818,19.5534615 10.9894909,19.8361538 12.1212,19.8361538 C13.8073091,19.8361538 15.1142727,19.2188462 16.0409455,17.9830769 C16.9676182,16.7473077 17.4326727,14.9865385 17.4326727,12.7053846 C17.4326727,7.99423077 15.7671818,5.64038462 12.4373455,5.64038462 C11.3136545,5.64038462 10.3102364,5.98423077 9.42709091,6.66615385 C8.54509091,7.34576923 7.98954545,8.20769231 7.75472727,9.2426923" id="Shape"></path>
                                    <path d="M27.2102727,4.98730769 L27.2102727,5.99461538 C28.6134545,4.205 30.4828364,3.30961538 32.8184182,3.30961538 C34.0818545,3.30961538 35.2754182,3.635 36.3945273,4.28115385 C37.5159273,4.92961538 38.2788,5.735 38.6716909,6.70076923 C38.9992909,7.50153846 39.1642364,8.55153846 39.1642364,9.8461538 L39.1642364,16.5557692 C39.1642364,17.5665385 39.1756909,18.1665385 39.1997455,18.3569231 C39.3165818,19.1576923 39.6304364,19.5569231 40.1481818,19.5569231 C40.3566545,19.5569231 40.6304182,19.5303846 40.9683273,19.4703846 C41.3085273,19.4103846 41.5502182,19.3803846 41.6888182,19.3803846 C41.9935091,19.3803846 42.2535273,19.4888462 42.4768909,19.6988462 C42.6991091,19.9146154 42.8102182,20.1696154 42.8102182,20.4730769 C42.8102182,20.8296154 42.6681818,21.1226923 42.3886909,21.3615385 C42.1103455,21.5957692 41.7678545,21.7146154 41.3715273,21.7146154 C41.0450727,21.7146154 40.5078545,21.6661538 39.7598727,21.5726923 C39.0118909,21.4780769 38.3120182,21.4307692 37.6579636,21.4307692 C37.0485818,21.4307692 36.5457273,21.455 36.1482545,21.5023077 C34.9810364,21.6442308 34.3613455,21.7157692 34.2949091,21.7157692 C33.3602182,21.7157692 32.8894364,21.3061538 32.8894364,20.4776923 C32.8894364,19.7519231 33.2949273,19.3838462 34.1059091,19.3838462 C34.2972,19.3838462 34.5114,19.4080769 34.7473636,19.4553846 C35.1998182,19.5488462 35.4861818,19.5973077 35.6053091,19.5973077 C36.1757455,19.5973077 36.4884545,18.9488462 36.5377091,17.6519231 L36.5377091,15.8496154 L36.5377091,13.6988462 L36.5377091,11.0138462 C36.5377091,9.7642308 36.4747091,8.90692308 36.3624545,8.43615385 C36.1505455,7.54076923 35.6969455,6.84730769 34.9982182,6.35230769 C34.2284727,5.81115385 33.3590727,5.54 32.382,5.54 C30.5194909,5.54 29.1793091,6.21038462 28.3660364,7.55230769 C27.8093455,8.47076923 27.5287091,10.0353846 27.5287091,12.2484615 L27.5287091,16.9434615 C27.5287091,17.9807692 27.5974364,18.6869231 27.7371818,19.0619231 C27.8780727,19.4415385 28.1380909,19.6296154 28.5126545,19.6296154 C28.6959273,19.6296154 28.9559455,19.5869231 29.2824,19.505 C29.6088545,19.4242308 29.8791818,19.3815385 30.0876545,19.3815385 C30.8150182,19.3815385 31.1746909,19.7773077 31.1746909,20.5642308 C31.1746909,21.3303846 30.7073455,21.7134615 29.7715091,21.7134615 C29.5848,21.7134615 28.9777091,21.6419231 27.9490909,21.5 C27.4324909,21.4284615 26.8632,21.395 26.2309091,21.395 C25.7395091,21.395 25.0866,21.4411538 24.2641636,21.5380769 C23.2378364,21.6534615 22.6559455,21.7111538 22.5139091,21.7111538 C21.5345455,21.7111538 21.0442909,21.3107692 21.0442909,20.5111538 C21.0442909,19.76 21.4222909,19.3792308 22.1851636,19.3792308 C22.3042909,19.3792308 22.5253636,19.4138462 22.8460909,19.4876923 C23.1645273,19.5580769 23.4829636,19.595 23.7910909,19.595 C24.5035636,19.595 24.8724,18.9096154 24.8998909,17.5469231 L24.8998909,13.6273077 L24.8998909,9.3546154 L24.8998909,8.11769231 C24.8506364,7.31923077 24.7475455,6.77 24.5952,6.47461538 C24.4394182,6.18153846 24.1702364,6.035 23.7910909,6.035 C23.6238545,6.035 23.3810182,6.06846154 23.0591455,6.14230769 C22.7384182,6.21269231 22.4955818,6.245 22.3272,6.245 C21.4692545,6.245 21.042,5.86423077 21.042,5.10153846 C21.042,4.31115385 21.5677636,3.91769231 22.617,3.91769231 C22.7578909,3.91769231 22.8770182,3.92923077 22.9675091,3.95230769 L24.2641636,4.09423077 C24.6398727,4.09423077 24.9674727,4.06423077 25.2492545,4.00653846 C25.8552,3.94653846 26.1713455,3.91769231 26.1954,3.91769231 C26.8712182,3.91192308 27.2102727,4.26846154 27.2102727,4.98730769" id="Shape"></path>
                                    <path d="M52.7653636,3.30961538 C53.3701636,3.30961538 54.0608727,3.40538462 54.8317636,3.59346154 C54.9497455,1.28576923 56.2853455,0.13192308 58.8316909,0.13192308 C59.9038364,0.13192308 60.8041636,0.41461538 61.5292364,0.97884615 C62.2520182,1.54423077 62.6128364,2.26192308 62.6128364,3.13423077 C62.6128364,3.69846154 62.4341455,4.18076923 62.0721818,4.58230769 C61.7079273,4.98153846 61.2818182,5.18346154 60.7915636,5.18346154 C60.4181455,5.18346154 60.0916909,5.05423077 59.8087636,4.79346154 C59.5292727,4.53615385 59.3906727,4.23153846 59.3906727,3.875 C59.3906727,3.49884615 59.6472545,3.11230769 60.1627091,2.70961538 C59.7892909,2.24 59.3070545,2.00461538 58.7228727,2.00461538 C57.4846364,2.00461538 56.8534909,2.78346154 56.8317273,4.33653846 C58.6071818,5.53884615 59.4960545,7.14961538 59.4960545,9.1769231 C59.4960545,10.7992308 58.8843818,12.1515385 57.6633273,13.2373077 C56.4399818,14.3196154 54.9108,14.8596154 53.0780727,14.8596154 C51.786,14.8596154 50.4458182,14.5526923 49.0586727,13.9423077 C48.6829636,13.775 48.3668182,13.6942308 48.1102364,13.6942308 C47.7780545,13.6942308 47.4848182,13.8407692 47.2270909,14.1373077 C46.9670727,14.4315385 46.8364909,14.78 46.8364909,15.1769231 C46.8364909,16.4023077 48.0712909,17.0115385 50.5351636,17.0115385 L50.7493636,17.0115385 L51.3828,17.0115385 L51.8077636,17.0115385 C54.0356727,17.0115385 55.8432,17.2273077 57.2326364,17.6496154 C58.5201273,18.0465385 59.5453091,18.6707692 60.2932909,19.5119231 C61.0458545,20.36 61.4215636,21.3107692 61.4215636,22.3653846 C61.4215636,24.0788462 60.6334909,25.4334615 59.0573455,26.4303846 C57.4789091,27.4273077 55.3449273,27.9269231 52.6576909,27.9269231 C49.9693091,27.9269231 47.8605273,27.4573077 46.3336364,26.5146154 C44.8010182,25.5730769 44.0358545,24.2784615 44.0358545,22.6273077 C44.0358545,20.7257692 45.0965455,19.3665385 47.2248,18.5657692 C45.2844,17.8123077 44.3164909,16.6826923 44.3164909,15.1757692 C44.3164909,13.5280769 45.2844,12.3996154 47.2248,11.7857692 C46.6177091,10.9630769 46.3118727,9.9984615 46.3118727,8.89076923 C46.3118727,7.28923077 46.9281273,5.95884615 48.1514727,4.90076923 C49.3828364,3.83807692 50.9188909,3.30961538 52.7653636,3.30961538 M52.8890727,19.3434615 C51.0105273,19.3434615 49.5351818,19.6273077 48.4573091,20.1915385 C47.3817273,20.7557692 46.8410727,21.5219231 46.8410727,22.4865385 C46.8410727,23.4523077 47.3702727,24.2103846 48.4229455,24.7653846 C49.4813455,25.3180769 50.8959818,25.595 52.6794545,25.595 C54.5568545,25.595 56.0356364,25.3111538 57.1284,24.7492308 C58.2177273,24.1826923 58.7618182,23.4280769 58.7618182,22.4888462 C58.7618182,21.5 58.2463636,20.7280769 57.2143091,20.1765385 C56.1822545,19.6203846 54.7412727,19.3434615 52.8890727,19.3434615 M52.8696,5.64038462 C51.8432727,5.64038462 50.9647091,5.94730769 50.2407818,6.55884615 C49.5168545,7.17153846 49.1193818,7.93769231 49.0483636,8.85730769 L49.0483636,9.0684615 C49.0483636,10.1034615 49.4011636,10.9411538 50.1021818,11.5769231 C50.8020545,12.2103846 51.7138364,12.5276923 52.8363818,12.5276923 C54.0047455,12.5276923 54.9566182,12.2115385 55.6942909,11.5769231 C56.4296727,10.9411538 56.7973636,10.1265385 56.7973636,9.14 C56.7973636,8.12807692 56.4250909,7.29153846 55.6759636,6.63384615 C54.9268364,5.97269231 53.9921455,5.64038462 52.8696,5.64038462" id="Shape"></path>
                                </g>
                            </g>
                        </g>
                    </g>
                </g>
            </g>
        </g>
    </g>
</svg>
